<svg width="128" height="128" viewBox="0 0 128 128" fill="none" xmlns="http://www.w3.org/2000/svg">
<circle cx="64" cy="64" r="64" fill="#00256D" fill-opacity="0.2"/>
<path d="M47.4999 71.0699L40.4332 78.1432L49.8599 87.5699L87.5699 49.8566L78.1432 40.4332L71.0665 47.4999L75.7832 52.2132L71.0665 56.9332L66.3532 52.2166L61.6399 56.9332L66.3532 61.6466L61.6399 66.3599L56.9265 61.6466L52.2099 66.3599L56.9265 71.0732L52.2099 75.7899L47.4999 71.0666V71.0699ZM80.4999 33.3599L94.6399 47.4999C95.2648 48.125 95.6158 48.9727 95.6158 49.8566C95.6158 50.7404 95.2648 51.5881 94.6399 52.2132L52.2132 94.6399C51.5881 95.2648 50.7404 95.6159 49.8565 95.6159C48.9726 95.6159 48.125 95.2648 47.4999 94.6399L33.3599 80.4999C32.735 79.8748 32.3839 79.0271 32.3839 78.1432C32.3839 77.2594 32.735 76.4117 33.3599 75.7866L75.7865 33.3599C76.4116 32.735 77.2593 32.3839 78.1432 32.3839C79.0271 32.3839 79.8748 32.735 80.4999 33.3599ZM71.0665 85.2099L75.7832 80.4966L83.2565 87.9732H87.9699V83.2599L80.4965 75.7832L85.2099 71.0699L93.9999 79.8566V93.9999H79.8599L71.0699 85.2099H71.0665ZM42.7865 56.9266L33.3565 47.4999C33.0466 47.1903 32.8007 46.8227 32.633 46.418C32.4652 46.0134 32.3789 45.5796 32.3789 45.1416C32.3789 44.7035 32.4652 44.2698 32.633 43.8651C32.8007 43.4604 33.0466 43.0928 33.3565 42.7832L42.7865 33.3566C43.4116 32.7317 44.2593 32.3806 45.1432 32.3806C46.0271 32.3806 46.8748 32.7317 47.4999 33.3566L56.9332 42.7832L52.2132 47.4999L45.1432 40.4266L40.4299 45.1432L47.4999 52.2099L42.7865 56.9266V56.9266Z" fill="#00256D"/>
</svg>
