<svg width="75" height="68" viewBox="0 0 75 68" fill="none" xmlns="http://www.w3.org/2000/svg">
<path d="M70.875 67.75H4.12502C3.14151 67.75 2.19828 67.3549 1.50283 66.6517C0.807385 65.9484 0.416687 64.9946 0.416687 64V35.8263C0.416629 35.2904 0.530128 34.7608 0.749538 34.2731C0.968949 33.7853 1.28917 33.3508 1.68865 32.9987L15.25 21.04V4C15.25 3.00544 15.6407 2.05161 16.3362 1.34835C17.0316 0.645088 17.9748 0.25 18.9584 0.25H70.875C71.8585 0.25 72.8018 0.645088 73.4972 1.34835C74.1927 2.05161 74.5834 3.00544 74.5834 4V64C74.5834 64.9946 74.1927 65.9484 73.4972 66.6517C72.8018 67.3549 71.8585 67.75 70.875 67.75ZM26.375 60.25H37.5V37.5325L22.6667 24.4525L7.83335 37.5325V60.25H18.9584V45.25H26.375V60.25ZM44.9167 60.25H67.1667V7.75H22.6667V15.7262C23.5344 15.7262 24.4059 16.0338 25.1031 16.6525L43.6447 32.9987C44.0442 33.3508 44.3644 33.7853 44.5838 34.2731C44.8032 34.7608 44.9167 35.2904 44.9167 35.8263V60.25ZM52.3334 30.25H59.75V37.75H52.3334V30.25ZM52.3334 45.25H59.75V52.75H52.3334V45.25ZM52.3334 15.25H59.75V22.75H52.3334V15.25ZM37.5 15.25H44.9167V22.75H37.5V15.25Z" fill="white"/>
</svg>
