<svg width="128" height="128" viewBox="0 0 128 128" fill="none" xmlns="http://www.w3.org/2000/svg">
<circle cx="64" cy="64" r="64" fill="#00256D" fill-opacity="0.2"/>
<path d="M55.9686 65.5374C53.4965 65.5374 51.08 64.8946 49.0246 63.6904C46.9692 62.4862 45.3672 60.7746 44.4211 58.772C43.4751 56.7695 43.2276 54.566 43.7099 52.4401C44.1922 50.3142 45.3826 48.3615 47.1306 46.8288C48.8786 45.2961 51.1056 44.2523 53.5302 43.8295C55.9547 43.4066 58.4678 43.6236 60.7517 44.4531C63.0355 45.2826 64.9876 46.6873 66.361 48.4895C67.7344 50.2917 68.4674 52.4106 68.4674 54.5781C68.4652 57.4841 67.1476 60.2705 64.8041 62.3253C62.4606 64.3801 59.2828 65.5354 55.9686 65.5374ZM55.9686 45.0128C53.806 45.0128 51.6919 45.5751 49.8938 46.6286C48.0956 47.682 46.6941 49.1794 45.8665 50.9313C45.0389 52.6832 44.8224 54.6109 45.2443 56.4707C45.6662 58.3305 46.7076 60.0388 48.2368 61.3796C49.766 62.7205 51.7143 63.6336 53.8354 64.0035C55.9564 64.3734 58.155 64.1836 60.153 63.4579C62.151 62.7323 63.8587 61.5034 65.0602 59.9268C66.2617 58.3501 66.9029 56.4965 66.9029 54.6003C66.9029 52.0575 65.7509 49.6189 63.7003 47.8209C61.6498 46.0229 58.8685 45.0128 55.9686 45.0128V45.0128Z" fill="#192751" stroke="#192751" stroke-width="4"/>
<path d="M76.9292 89.9487H35V89.2112C35 88.9826 35.5888 66.6658 55.9604 66.6658C76.6852 66.6658 76.9208 88.9974 76.9208 89.2186L76.9292 89.9487ZM36.6317 88.5549H75.3227C75.146 84.8673 73.3545 68.0892 55.9772 68.0892C39.1214 68.0892 36.9177 84.8747 36.6317 88.5549Z" fill="#192751" stroke="#192751" stroke-width="4"/>
<path d="M81.5468 66.5034H74.2375V48.228H81.5468V66.5034ZM75.8272 65.1095H79.9571V49.6219H75.8272V65.1095Z" fill="#192751" stroke="#192751"/>
<path d="M104.703 45.1822H99.4375C99.2525 45.1822 99.0842 45.1822 98.9076 45.2264V45.1822H93.0199V41.4578C93.1407 39.4681 92.4588 37.5046 91.0937 35.9117C90.7378 35.4187 90.268 34.9967 89.7145 34.6728C89.1611 34.3488 88.5364 34.1302 87.8807 34.0311C87.5567 33.9801 87.2238 33.992 86.9056 34.0659C86.5874 34.1398 86.2915 34.2739 86.0387 34.4588C85.7773 34.6485 85.5665 34.8862 85.4212 35.155C85.2759 35.4239 85.1995 35.7174 85.1976 36.0149V44.7102C85.2086 44.9113 85.1611 45.1116 85.0596 45.2922C84.9581 45.4728 84.8059 45.6278 84.6172 45.7427C83.9824 46.0945 83.4607 46.5827 83.1015 47.1609C82.7424 47.7392 82.5576 48.3883 82.5649 49.0467V66.5256H97.3347H97.503H102.373C103.333 66.5268 104.269 66.2592 105.043 65.7617C105.818 65.2643 106.391 64.563 106.679 63.76V61.8941V51.9967C107.086 51.7307 107.416 51.3859 107.645 50.9893C107.874 50.5927 107.996 50.155 108 49.7105V48.0806C108 47.3131 107.653 46.577 107.035 46.0337C106.417 45.4903 105.578 45.1841 104.703 45.1822V45.1822ZM104.703 46.5761C105.149 46.5761 105.577 46.7315 105.892 47.0081C106.208 47.2847 106.385 47.6599 106.385 48.0511V49.7105C106.385 50.1017 106.208 50.4768 105.892 50.7535C105.577 51.0301 105.149 51.1855 104.703 51.1855H99.4375C99.0845 51.1876 98.7349 51.1248 98.4114 51.0011C97.9273 50.8277 97.5134 50.5315 97.2226 50.1504C96.9319 49.7693 96.7776 49.3208 96.7796 48.8623C96.7842 48.2526 97.0586 47.6682 97.545 47.2324C97.7837 47.0206 98.0702 46.8548 98.3861 46.7457H98.4366C98.7425 46.6322 99.0716 46.5745 99.4039 46.5761H104.703ZM84.1546 65.1096V49.0467C84.1551 48.6275 84.2784 48.2155 84.5125 47.85C84.7467 47.4846 85.0839 47.178 85.492 46.9596C85.9101 46.7201 86.2521 46.3915 86.486 46.0045C86.7199 45.6176 86.838 45.1849 86.8293 44.747V36.0149C86.83 35.9221 86.8537 35.8305 86.8987 35.7465C86.9437 35.6624 87.009 35.588 87.0901 35.5282C87.1632 35.473 87.2496 35.4331 87.3428 35.4114C87.436 35.3897 87.5337 35.3867 87.6284 35.4028C88.0847 35.4705 88.5189 35.6242 88.9008 35.8534C89.2827 36.0826 89.6034 36.3818 89.8405 36.7303C91.0062 38.0864 91.5819 39.7627 91.4638 41.4578V46.5761H96.1151L95.9974 46.7309C95.9365 46.8043 95.8803 46.8806 95.8292 46.9596C95.7453 47.0785 95.6694 47.2016 95.6021 47.3283C95.56 47.4094 95.5179 47.4832 95.4843 47.5643C95.425 47.7069 95.3745 47.8521 95.3329 47.9994C95.3329 48.0732 95.3329 48.1396 95.274 48.2133C95.2234 48.4343 95.1981 48.6591 95.1983 48.8845C95.1991 49.0972 95.2216 49.3095 95.2656 49.5187C95.2784 49.5834 95.2953 49.6474 95.3161 49.7105C95.347 49.8537 95.392 49.9944 95.4507 50.1308C95.4736 50.1964 95.5017 50.2605 95.5348 50.3226C95.6003 50.4644 95.6761 50.6023 95.7619 50.7356L95.8544 50.8757C95.9774 51.0446 96.1152 51.2049 96.2665 51.3551C95.5908 51.5364 94.9992 51.9028 94.5784 52.4005C94.1575 52.8983 93.9297 53.5012 93.9283 54.1208V63.5166C93.9396 63.6331 93.9593 63.7489 93.9871 63.8632C93.983 63.9197 93.983 63.9764 93.9871 64.0329C94.0514 64.4145 94.2031 64.7807 94.4329 65.1096H84.1546ZM105.132 63.4133C104.927 63.9109 104.552 64.3408 104.059 64.6445C103.565 64.9481 102.976 65.1106 102.373 65.1096H97.503C96.9765 65.1096 96.4716 64.9262 96.0993 64.5998C95.7271 64.2734 95.518 63.8307 95.518 63.3691V61.8941H105.132V63.4133ZM105.132 60.4633H95.518V57.233H105.132V60.4633ZM105.132 52.5867V55.8318H95.518V54.2535C95.5168 54.0369 95.5645 53.8223 95.6583 53.6219C95.7521 53.4215 95.8901 53.2393 96.0643 53.0858C96.2386 52.9323 96.4458 52.8105 96.6739 52.7274C96.902 52.6443 97.1466 52.6015 97.3936 52.6015H105.132V52.5867Z" fill="#192751" stroke="#192751"/>
</svg>
