<svg width="83" height="77" viewBox="0 0 83 77" fill="none" xmlns="http://www.w3.org/2000/svg">
<path d="M83 54.8563C82.9982 59.8569 81.0582 64.707 77.5014 68.6037C73.9445 72.5004 68.984 75.21 63.4411 76.2839L60.7934 69.2852C63.2179 68.9334 65.5237 68.112 67.5446 66.8802C69.5654 65.6485 71.251 64.0371 72.4798 62.1622H62.25C60.0487 62.1622 57.9376 61.3917 56.381 60.0202C54.8245 58.6487 53.95 56.7885 53.95 54.849V40.2226C53.95 38.283 54.8245 36.4229 56.381 35.0514C57.9376 33.6799 60.0487 32.9094 62.25 32.9094H74.4427C73.43 25.8408 69.5246 19.3407 63.4594 14.6289C57.3942 9.91698 49.5861 7.31713 41.5 7.31713C33.4139 7.31713 25.6058 9.91698 19.5406 14.6289C13.4754 19.3407 9.57003 25.8408 8.5573 32.9094H20.75C22.9513 32.9094 25.0624 33.6799 26.619 35.0514C28.1755 36.4229 29.05 38.283 29.05 40.2226V54.849C29.05 56.7885 28.1755 58.6487 26.619 60.0202C25.0624 61.3917 22.9513 62.1622 20.75 62.1622H8.3C6.0987 62.1622 3.98757 61.3917 2.43101 60.0202C0.874461 58.6487 0 56.7885 0 54.849V36.566C0 16.3706 18.5796 0 41.5 0C64.4205 0 83 16.3706 83 36.566V54.8563ZM74.7 54.849V40.2226H62.25V54.849H74.7ZM8.3 40.2226V54.849H20.75V40.2226H8.3Z" fill="white"/>
</svg>
