<svg width="128" height="128" viewBox="0 0 128 128" fill="none" xmlns="http://www.w3.org/2000/svg">
<circle cx="64" cy="64" r="64" fill="#CCD3E2"/>
<path d="M95.6667 67.4733V90H99V96.6667H32.3333V90H35.6667V67.4733C33.6146 66.1036 31.9324 64.2485 30.7694 62.0725C29.6064 59.8966 28.9986 57.4672 29 55C29 52.2433 29.7467 49.5867 31.11 47.3233L40.15 31.6667C40.4426 31.1599 40.8633 30.7392 41.3701 30.4466C41.8768 30.154 42.4516 30 43.0367 30H88.3C88.8851 30 89.4599 30.154 89.9666 30.4466C90.4733 30.7392 90.8941 31.1599 91.1867 31.6667L100.193 47.2733C102.182 50.5762 102.821 54.5184 101.978 58.2805C101.135 62.0425 98.8746 65.3349 95.6667 67.4733V67.4733ZM89 69.9067C86.7081 70.1638 84.3878 69.8885 82.2197 69.1022C80.0516 68.3159 78.0943 67.0398 76.5 65.3733C75.1007 66.8369 73.4193 68.0017 71.5574 68.7975C69.6954 69.5933 67.6915 70.0035 65.6667 70.0033C63.6423 70.0043 61.6387 69.5952 59.7768 68.8006C57.9148 68.006 56.2332 66.8424 54.8333 65.38C53.2388 67.0459 51.2812 68.3213 49.1132 69.107C46.9451 69.8927 44.625 70.1675 42.3333 69.91V90H89V69.91V69.9067ZM44.9633 36.6667L36.8533 50.71C36.0653 52.6572 36.0416 54.8301 36.7871 56.7939C37.5326 58.7578 38.9923 60.3676 40.8739 61.3013C42.7556 62.235 44.9205 62.4236 46.9353 61.8294C48.9501 61.2352 50.6661 59.902 51.74 58.0967C52.8567 55.3067 56.8067 55.3067 57.9267 58.0967C58.5443 59.6447 59.612 60.972 60.9918 61.907C62.3715 62.842 63.9999 63.3418 65.6667 63.3418C67.3334 63.3418 68.9618 62.842 70.3416 61.907C71.7213 60.972 72.789 59.6447 73.4067 58.0967C74.5233 55.3067 78.4733 55.3067 79.5933 58.0967C80.0259 59.1615 80.6741 60.1253 81.4971 60.9276C82.3202 61.7298 83.3002 62.3532 84.3758 62.7584C85.4513 63.1636 86.5991 63.342 87.7468 63.2823C88.8946 63.2226 90.0177 62.9261 91.0454 62.4114C92.073 61.8968 92.9831 61.1751 93.7185 60.2918C94.4538 59.4084 94.9985 58.3826 95.3182 57.2786C95.638 56.1746 95.7259 55.0164 95.5765 53.8768C95.4271 52.7373 95.0436 51.6409 94.45 50.6567L86.3667 36.6667H44.9667H44.9633Z" fill="#00256D"/>
</svg>
