<svg width="128" height="128" viewBox="0 0 128 128" fill="none" xmlns="http://www.w3.org/2000/svg">
<circle cx="64" cy="64" r="64" fill="#00256D" fill-opacity="0.2"/>
<path d="M60.6666 90.6667V67.3334H53.9999V57.3334H73.9999V67.3334H67.3332V90.6667H83.9999V97.3334H43.9999V90.6667H60.6666ZM57.3332 31.41V27.3334H70.6666V31.41C76.3846 32.7156 81.5947 35.6681 85.6529 39.9026C89.7111 44.1371 92.4395 49.468 93.5009 55.2363C94.5623 61.0046 93.9101 66.9575 91.625 72.3592C89.3399 77.7609 85.522 82.3746 80.6432 85.63L76.9432 80.0834C81.1096 77.3052 84.2716 73.2603 85.962 68.5465C87.6524 63.8327 87.7814 58.7002 86.33 53.9074C84.8786 49.1147 81.9238 44.916 77.9023 41.932C73.8808 38.9479 69.0059 37.3369 63.9982 37.3369C58.9905 37.3369 54.1157 38.9479 50.0942 41.932C46.0726 44.916 43.1178 49.1147 41.6664 53.9074C40.215 58.7002 40.3441 63.8327 42.0344 68.5465C43.7248 73.2603 46.8869 77.3052 51.0532 80.0834L47.3566 85.63C42.4778 82.3746 38.6599 77.7609 36.3748 72.3592C34.0897 66.9575 33.4375 61.0046 34.4989 55.2363C35.5603 49.468 38.2887 44.1371 42.3469 39.9026C46.4051 35.6681 51.6152 32.7156 57.3332 31.41V31.41Z" fill="#00256D"/>
</svg>
