<svg width="22" height="22" viewBox="0 0 22 22" fill="none" xmlns="http://www.w3.org/2000/svg">
<path d="M20.0099 0H1.99008C0.891 0 0 0.891 0 1.99008V20.0099C0 21.109 0.891 22 1.99008 22H20.0099C21.109 22 22 21.109 22 20.0099V1.99008C22 0.891 21.109 0 20.0099 0ZM6.80773 18.9963C6.80773 19.3161 6.54846 19.5754 6.22859 19.5754H3.76332C3.44346 19.5754 3.18418 19.3161 3.18418 18.9963V8.66195C3.18418 8.34209 3.44346 8.08281 3.76332 8.08281H6.22859C6.54846 8.08281 6.80773 8.34209 6.80773 8.66195V18.9963ZM4.99596 7.10865C3.70251 7.10865 2.65394 6.06008 2.65394 4.76663C2.65394 3.47318 3.70251 2.42461 4.99596 2.42461C6.28941 2.42461 7.33798 3.47318 7.33798 4.76663C7.33798 6.06008 6.28947 7.10865 4.99596 7.10865ZM19.6912 19.0429C19.6912 19.337 19.4527 19.5754 19.1587 19.5754H16.5132C16.2192 19.5754 15.9808 19.337 15.9808 19.0429V14.1955C15.9808 13.4724 16.1929 11.0268 14.091 11.0268C12.4606 11.0268 12.1299 12.7007 12.0635 13.452V19.0429C12.0635 19.337 11.8252 19.5754 11.5311 19.5754H8.97249C8.67842 19.5754 8.43999 19.337 8.43999 19.0429V8.6153C8.43999 8.32124 8.67842 8.08281 8.97249 8.08281H11.5311C11.8251 8.08281 12.0635 8.32124 12.0635 8.6153V9.5169C12.6681 8.60966 13.5665 7.9094 15.4794 7.9094C19.7154 7.9094 19.6912 11.8669 19.6912 14.0413V19.0429Z" fill="white"/>
</svg>
