<svg width="22" height="10" viewBox="0 0 22 10" fill="none" xmlns="http://www.w3.org/2000/svg">
<path d="M20.7483 10H1.00009C0.455312 10 0.012085 9.55679 0.012085 9.01132C0.012085 8.46654 0.455312 8.02331 1.00009 8.02331H20.7483C21.2931 8.02331 21.7363 8.46654 21.7363 9.01132C21.7363 9.55679 21.2931 10 20.7483 10Z" fill="white"/>
<path d="M20.7483 6H0.988008C0.443227 6 0 5.55679 0 5.01132C0 4.46654 0.443227 4.02331 0.988008 4.02331H20.7483C21.293 4.02331 21.7363 4.46654 21.7363 5.01132C21.7363 5.55679 21.293 6 20.7483 6Z" fill="white"/>
<path d="M20.7483 1.97656H0.988008C0.443227 1.97656 0 1.53334 0 0.987883C0 0.443102 0.443227 -0.000125051 0.988008 -0.000125051H20.7483C21.293 -0.000125051 21.7363 0.443102 21.7363 0.987883C21.7363 1.53334 21.293 1.97656 20.7483 1.97656Z" fill="white"/>
</svg>
