<svg width="302" height="302" viewBox="0 0 302 302" fill="none" xmlns="http://www.w3.org/2000/svg">
<path d="M296.104 151C296.104 231.138 231.138 296.103 151 296.103C70.8627 296.103 5.89941 231.138 5.89941 151C5.89941 70.8622 70.8627 5.89893 151 5.89893C231.138 5.89893 296.104 70.8622 296.104 151Z" fill="#58E588"/>
<path d="M201.531 82.4885L131.241 152.779L100.472 122.01L67.1045 155.378L97.873 186.146L131.241 219.512L234.896 115.856L201.531 82.4885Z" fill="white"/>
<path d="M131.241 225.41C129.676 225.41 128.176 224.788 127.07 223.682L62.9341 159.548C60.63 157.244 60.63 153.509 62.9341 151.205L96.2993 117.84C98.6034 115.536 102.338 115.536 104.642 117.84L131.241 144.438L197.358 78.3181C198.464 77.2122 199.966 76.5901 201.531 76.5901C203.093 76.5901 204.595 77.2122 205.701 78.3181L239.066 111.686C241.37 113.987 241.37 117.722 239.066 120.026L135.411 223.684C134.305 224.79 132.805 225.41 131.241 225.41V225.41ZM75.4475 155.378L131.241 211.171L226.555 115.856L201.531 90.8292L135.411 156.949C133.107 159.253 129.372 159.253 127.07 156.949L100.472 130.351L75.4475 155.378Z" fill="#192751"/>
<path d="M150.963 301.999C147.11 301.999 143.253 301.852 139.389 301.557C103.506 298.806 69.7096 283.255 44.2266 257.775C15.7068 229.253 0 191.335 0 150.999C0 110.667 15.7068 72.7464 44.2266 44.2266C72.7464 15.7068 110.667 0 151 0C191.335 0 229.253 15.7068 257.775 44.2266C283.255 69.7096 298.806 103.506 301.557 139.389C304.278 174.883 294.393 210.262 273.726 239.013C271.825 241.658 268.138 242.259 265.493 240.358C262.848 238.457 262.247 234.771 264.148 232.126C304.096 176.559 297.907 101.045 249.432 52.5673C195.157 -1.70732 106.844 -1.70732 52.5697 52.5673C-1.70732 106.844 -1.70732 195.155 52.5697 249.432C101.045 297.905 176.561 304.096 232.128 264.145C234.773 262.245 238.457 262.848 240.361 265.493C242.261 268.138 241.658 271.823 239.013 273.726C213.391 292.144 182.503 301.999 150.963 301.999V301.999Z" fill="#192751"/>
<path d="M253.604 259.503C252.052 259.503 250.531 258.872 249.434 257.775C248.337 256.676 247.706 255.155 247.706 253.605C247.706 252.052 248.337 250.531 249.434 249.434C250.531 248.338 252.052 247.706 253.604 247.706C255.155 247.706 256.676 248.338 257.775 249.434C258.872 250.531 259.503 252.052 259.503 253.605C259.503 255.155 258.872 256.676 257.775 257.775C256.676 258.872 255.155 259.503 253.604 259.503Z" fill="#192751"/>
</svg>
