<svg width="25" height="19" viewBox="0 0 25 19" fill="none" xmlns="http://www.w3.org/2000/svg">
<path d="M25 2.25696C24.0806 2.62797 23.0802 2.89498 22.0496 2.99897C23.1196 2.40434 23.9208 1.46492 24.303 0.356964C23.299 0.915691 22.1991 1.30748 21.0522 1.51495C20.5728 1.03553 19.993 0.6536 19.3489 0.392961C18.7049 0.132323 18.0104 -0.00143844 17.3086 1.16653e-05C14.4694 1.16653e-05 12.186 2.15297 12.186 4.79498C12.186 5.16599 12.2341 5.53699 12.3122 5.89394C8.06093 5.68596 4.26932 3.78596 1.74859 0.876934C1.28928 1.61084 1.04859 2.44647 1.05156 3.2969C1.05156 4.96081 1.95589 6.42797 3.33494 7.29084C2.52225 7.26089 1.72859 7.05193 1.01851 6.68092V6.73995C1.01851 9.06998 2.77911 11.0009 5.12559 11.445C4.68501 11.552 4.23178 11.6068 3.77659 11.608C3.4431 11.608 3.12763 11.5771 2.80916 11.5349C3.45812 13.4349 5.34791 14.8149 7.59825 14.8599C5.83764 16.15 3.63238 16.9089 1.23783 16.9089C0.808196 16.9089 0.411609 16.8948 0 16.8499C2.27136 18.213 4.96635 19 7.86865 19C17.2906 19 22.4462 11.6979 22.4462 5.35992C22.4462 5.15193 22.4462 4.94394 22.4312 4.73596C23.4287 4.05297 24.303 3.20696 25 2.25696Z" fill="white"/>
</svg>
